<mxfile host="app.diagrams.net" modified="2020-10-01T09:58:48.800Z" agent="5.0 (Windows NT 10.0; Win64; x64) AppleWebKit/537.36 (KHTML, like Gecko) Chrome/85.0.4183.121 Safari/537.36" etag="Yxu1FHDG3YtwJbedFvk6" version="13.7.7" type="github">
  <diagram id="R2lEEEUBdFMjLlhIrx00" name="Page-1">
    <mxGraphModel dx="1422" dy="802" grid="1" gridSize="10" guides="1" tooltips="1" connect="1" arrows="1" fold="1" page="1" pageScale="1" pageWidth="850" pageHeight="1100" math="0" shadow="0" extFonts="Permanent Marker^https://fonts.googleapis.com/css?family=Permanent+Marker">
      <root>
        <mxCell id="0" />
        <mxCell id="1" parent="0" />
        <mxCell id="67jycsV7ZSqdvSspBb41-67" value="password VARCAHR&#39;40)" style="shape=partialRectangle;connectable=0;fillColor=none;top=0;left=0;bottom=0;right=0;align=left;spacingLeft=6;overflow=hidden;" vertex="1" parent="1">
          <mxGeometry x="50" y="200" width="150" height="30" as="geometry" />
        </mxCell>
        <mxCell id="67jycsV7ZSqdvSspBb41-70" value="bank_id INT" style="shape=partialRectangle;connectable=0;fillColor=none;top=0;left=0;bottom=0;right=0;align=left;spacingLeft=6;overflow=hidden;" vertex="1" parent="1">
          <mxGeometry x="350" y="410" width="150" height="30" as="geometry" />
        </mxCell>
        <mxCell id="67jycsV7ZSqdvSspBb41-71" value="montant DOUBLE(7,2)" style="shape=partialRectangle;connectable=0;fillColor=none;top=0;left=0;bottom=0;right=0;align=left;spacingLeft=6;overflow=hidden;" vertex="1" parent="1">
          <mxGeometry x="350" y="440" width="150" height="30" as="geometry" />
        </mxCell>
        <mxCell id="67jycsV7ZSqdvSspBb41-115" value="date_transfert DATETIME" style="shape=partialRectangle;connectable=0;fillColor=none;top=0;left=0;bottom=0;right=0;align=left;spacingLeft=6;overflow=hidden;" vertex="1" parent="1">
          <mxGeometry x="600" y="700" width="150" height="30" as="geometry" />
        </mxCell>
        <mxCell id="67jycsV7ZSqdvSspBb41-131" value="FK" style="shape=partialRectangle;connectable=0;fillColor=none;top=0;left=0;bottom=0;right=0;editable=1;overflow=hidden;" vertex="1" parent="1">
          <mxGeometry x="320" y="410" width="30" height="30" as="geometry" />
        </mxCell>
        <mxCell id="67jycsV7ZSqdvSspBb41-51" value="Users" style="shape=table;startSize=30;container=1;collapsible=1;childLayout=tableLayout;fixedRows=1;rowLines=0;fontStyle=1;align=center;resizeLast=1;" vertex="1" parent="1">
          <mxGeometry x="20" y="50" width="190" height="190" as="geometry" />
        </mxCell>
        <mxCell id="67jycsV7ZSqdvSspBb41-52" value="" style="shape=partialRectangle;collapsible=0;dropTarget=0;pointerEvents=0;fillColor=none;top=0;left=0;bottom=1;right=0;points=[[0,0.5],[1,0.5]];portConstraint=eastwest;" vertex="1" parent="67jycsV7ZSqdvSspBb41-51">
          <mxGeometry y="30" width="190" height="30" as="geometry" />
        </mxCell>
        <mxCell id="67jycsV7ZSqdvSspBb41-53" value="PK" style="shape=partialRectangle;connectable=0;fillColor=none;top=0;left=0;bottom=0;right=0;fontStyle=1;overflow=hidden;" vertex="1" parent="67jycsV7ZSqdvSspBb41-52">
          <mxGeometry width="30" height="30" as="geometry" />
        </mxCell>
        <mxCell id="67jycsV7ZSqdvSspBb41-54" value="id" style="shape=partialRectangle;connectable=0;fillColor=none;top=0;left=0;bottom=0;right=0;align=left;spacingLeft=6;fontStyle=5;overflow=hidden;" vertex="1" parent="67jycsV7ZSqdvSspBb41-52">
          <mxGeometry x="30" width="160" height="30" as="geometry" />
        </mxCell>
        <mxCell id="67jycsV7ZSqdvSspBb41-55" value="" style="shape=partialRectangle;collapsible=0;dropTarget=0;pointerEvents=0;fillColor=none;top=0;left=0;bottom=0;right=0;points=[[0,0.5],[1,0.5]];portConstraint=eastwest;" vertex="1" parent="67jycsV7ZSqdvSspBb41-51">
          <mxGeometry y="60" width="190" height="30" as="geometry" />
        </mxCell>
        <mxCell id="67jycsV7ZSqdvSspBb41-56" value="" style="shape=partialRectangle;connectable=0;fillColor=none;top=0;left=0;bottom=0;right=0;editable=1;overflow=hidden;" vertex="1" parent="67jycsV7ZSqdvSspBb41-55">
          <mxGeometry width="30" height="30" as="geometry" />
        </mxCell>
        <mxCell id="67jycsV7ZSqdvSspBb41-57" value="name VARCHAR(40)" style="shape=partialRectangle;connectable=0;fillColor=none;top=0;left=0;bottom=0;right=0;align=left;spacingLeft=6;overflow=hidden;" vertex="1" parent="67jycsV7ZSqdvSspBb41-55">
          <mxGeometry x="30" width="160" height="30" as="geometry" />
        </mxCell>
        <mxCell id="67jycsV7ZSqdvSspBb41-58" value="" style="shape=partialRectangle;collapsible=0;dropTarget=0;pointerEvents=0;fillColor=none;top=0;left=0;bottom=0;right=0;points=[[0,0.5],[1,0.5]];portConstraint=eastwest;" vertex="1" parent="67jycsV7ZSqdvSspBb41-51">
          <mxGeometry y="90" width="190" height="30" as="geometry" />
        </mxCell>
        <mxCell id="67jycsV7ZSqdvSspBb41-59" value="" style="shape=partialRectangle;connectable=0;fillColor=none;top=0;left=0;bottom=0;right=0;editable=1;overflow=hidden;" vertex="1" parent="67jycsV7ZSqdvSspBb41-58">
          <mxGeometry width="30" height="30" as="geometry" />
        </mxCell>
        <mxCell id="67jycsV7ZSqdvSspBb41-60" value="date_creation date" style="shape=partialRectangle;connectable=0;fillColor=none;top=0;left=0;bottom=0;right=0;align=left;spacingLeft=6;overflow=hidden;" vertex="1" parent="67jycsV7ZSqdvSspBb41-58">
          <mxGeometry x="30" width="160" height="30" as="geometry" />
        </mxCell>
        <mxCell id="67jycsV7ZSqdvSspBb41-61" value="" style="shape=partialRectangle;collapsible=0;dropTarget=0;pointerEvents=0;fillColor=none;top=0;left=0;bottom=0;right=0;points=[[0,0.5],[1,0.5]];portConstraint=eastwest;" vertex="1" parent="67jycsV7ZSqdvSspBb41-51">
          <mxGeometry y="120" width="190" height="30" as="geometry" />
        </mxCell>
        <mxCell id="67jycsV7ZSqdvSspBb41-62" value="" style="shape=partialRectangle;connectable=0;fillColor=none;top=0;left=0;bottom=0;right=0;editable=1;overflow=hidden;" vertex="1" parent="67jycsV7ZSqdvSspBb41-61">
          <mxGeometry width="30" height="30" as="geometry" />
        </mxCell>
        <mxCell id="67jycsV7ZSqdvSspBb41-63" value="login VARCAHR(30)" style="shape=partialRectangle;connectable=0;fillColor=none;top=0;left=0;bottom=0;right=0;align=left;spacingLeft=6;overflow=hidden;" vertex="1" parent="67jycsV7ZSqdvSspBb41-61">
          <mxGeometry x="30" width="160" height="30" as="geometry" />
        </mxCell>
        <mxCell id="67jycsV7ZSqdvSspBb41-102" value="Banks" style="shape=table;startSize=30;container=1;collapsible=1;childLayout=tableLayout;fixedRows=1;rowLines=0;fontStyle=1;align=center;resizeLast=1;" vertex="1" parent="1">
          <mxGeometry x="50" y="570" width="190" height="160" as="geometry" />
        </mxCell>
        <mxCell id="67jycsV7ZSqdvSspBb41-103" value="" style="shape=partialRectangle;collapsible=0;dropTarget=0;pointerEvents=0;fillColor=none;top=0;left=0;bottom=1;right=0;points=[[0,0.5],[1,0.5]];portConstraint=eastwest;" vertex="1" parent="67jycsV7ZSqdvSspBb41-102">
          <mxGeometry y="30" width="190" height="30" as="geometry" />
        </mxCell>
        <mxCell id="67jycsV7ZSqdvSspBb41-104" value="PK" style="shape=partialRectangle;connectable=0;fillColor=none;top=0;left=0;bottom=0;right=0;fontStyle=1;overflow=hidden;" vertex="1" parent="67jycsV7ZSqdvSspBb41-103">
          <mxGeometry width="30" height="30" as="geometry" />
        </mxCell>
        <mxCell id="67jycsV7ZSqdvSspBb41-105" value="id" style="shape=partialRectangle;connectable=0;fillColor=none;top=0;left=0;bottom=0;right=0;align=left;spacingLeft=6;fontStyle=5;overflow=hidden;" vertex="1" parent="67jycsV7ZSqdvSspBb41-103">
          <mxGeometry x="30" width="160" height="30" as="geometry" />
        </mxCell>
        <mxCell id="67jycsV7ZSqdvSspBb41-106" value="" style="shape=partialRectangle;collapsible=0;dropTarget=0;pointerEvents=0;fillColor=none;top=0;left=0;bottom=0;right=0;points=[[0,0.5],[1,0.5]];portConstraint=eastwest;" vertex="1" parent="67jycsV7ZSqdvSspBb41-102">
          <mxGeometry y="60" width="190" height="30" as="geometry" />
        </mxCell>
        <mxCell id="67jycsV7ZSqdvSspBb41-107" value="" style="shape=partialRectangle;connectable=0;fillColor=none;top=0;left=0;bottom=0;right=0;editable=1;overflow=hidden;" vertex="1" parent="67jycsV7ZSqdvSspBb41-106">
          <mxGeometry width="30" height="30" as="geometry" />
        </mxCell>
        <mxCell id="67jycsV7ZSqdvSspBb41-108" value="name VARCAHR(30)" style="shape=partialRectangle;connectable=0;fillColor=none;top=0;left=0;bottom=0;right=0;align=left;spacingLeft=6;overflow=hidden;" vertex="1" parent="67jycsV7ZSqdvSspBb41-106">
          <mxGeometry x="30" width="160" height="30" as="geometry" />
        </mxCell>
        <mxCell id="67jycsV7ZSqdvSspBb41-109" value="" style="shape=partialRectangle;collapsible=0;dropTarget=0;pointerEvents=0;fillColor=none;top=0;left=0;bottom=0;right=0;points=[[0,0.5],[1,0.5]];portConstraint=eastwest;" vertex="1" parent="67jycsV7ZSqdvSspBb41-102">
          <mxGeometry y="90" width="190" height="30" as="geometry" />
        </mxCell>
        <mxCell id="67jycsV7ZSqdvSspBb41-110" value="" style="shape=partialRectangle;connectable=0;fillColor=none;top=0;left=0;bottom=0;right=0;editable=1;overflow=hidden;" vertex="1" parent="67jycsV7ZSqdvSspBb41-109">
          <mxGeometry width="30" height="30" as="geometry" />
        </mxCell>
        <mxCell id="67jycsV7ZSqdvSspBb41-111" value="address VARCHAR(50)" style="shape=partialRectangle;connectable=0;fillColor=none;top=0;left=0;bottom=0;right=0;align=left;spacingLeft=6;overflow=hidden;" vertex="1" parent="67jycsV7ZSqdvSspBb41-109">
          <mxGeometry x="30" width="160" height="30" as="geometry" />
        </mxCell>
        <mxCell id="67jycsV7ZSqdvSspBb41-112" value="" style="shape=partialRectangle;collapsible=0;dropTarget=0;pointerEvents=0;fillColor=none;top=0;left=0;bottom=0;right=0;points=[[0,0.5],[1,0.5]];portConstraint=eastwest;" vertex="1" parent="67jycsV7ZSqdvSspBb41-102">
          <mxGeometry y="120" width="190" height="30" as="geometry" />
        </mxCell>
        <mxCell id="67jycsV7ZSqdvSspBb41-113" value="" style="shape=partialRectangle;connectable=0;fillColor=none;top=0;left=0;bottom=0;right=0;editable=1;overflow=hidden;" vertex="1" parent="67jycsV7ZSqdvSspBb41-112">
          <mxGeometry width="30" height="30" as="geometry" />
        </mxCell>
        <mxCell id="67jycsV7ZSqdvSspBb41-114" value="national_id VARCAHR(50)" style="shape=partialRectangle;connectable=0;fillColor=none;top=0;left=0;bottom=0;right=0;align=left;spacingLeft=6;overflow=hidden;" vertex="1" parent="67jycsV7ZSqdvSspBb41-112">
          <mxGeometry x="30" width="160" height="30" as="geometry" />
        </mxCell>
        <mxCell id="67jycsV7ZSqdvSspBb41-117" value="Transferts" style="shape=table;startSize=30;container=1;collapsible=1;childLayout=tableLayout;fixedRows=1;rowLines=0;fontStyle=1;align=center;resizeLast=1;" vertex="1" parent="1">
          <mxGeometry x="570" y="550" width="190" height="200" as="geometry" />
        </mxCell>
        <mxCell id="67jycsV7ZSqdvSspBb41-118" value="" style="shape=partialRectangle;collapsible=0;dropTarget=0;pointerEvents=0;fillColor=none;top=0;left=0;bottom=1;right=0;points=[[0,0.5],[1,0.5]];portConstraint=eastwest;" vertex="1" parent="67jycsV7ZSqdvSspBb41-117">
          <mxGeometry y="30" width="190" height="30" as="geometry" />
        </mxCell>
        <mxCell id="67jycsV7ZSqdvSspBb41-119" value="PK" style="shape=partialRectangle;connectable=0;fillColor=none;top=0;left=0;bottom=0;right=0;fontStyle=1;overflow=hidden;" vertex="1" parent="67jycsV7ZSqdvSspBb41-118">
          <mxGeometry width="30" height="30" as="geometry" />
        </mxCell>
        <mxCell id="67jycsV7ZSqdvSspBb41-120" value="id" style="shape=partialRectangle;connectable=0;fillColor=none;top=0;left=0;bottom=0;right=0;align=left;spacingLeft=6;fontStyle=5;overflow=hidden;" vertex="1" parent="67jycsV7ZSqdvSspBb41-118">
          <mxGeometry x="30" width="160" height="30" as="geometry" />
        </mxCell>
        <mxCell id="67jycsV7ZSqdvSspBb41-121" value="" style="shape=partialRectangle;collapsible=0;dropTarget=0;pointerEvents=0;fillColor=none;top=0;left=0;bottom=0;right=0;points=[[0,0.5],[1,0.5]];portConstraint=eastwest;" vertex="1" parent="67jycsV7ZSqdvSspBb41-117">
          <mxGeometry y="60" width="190" height="30" as="geometry" />
        </mxCell>
        <mxCell id="67jycsV7ZSqdvSspBb41-122" value="" style="shape=partialRectangle;connectable=0;fillColor=none;top=0;left=0;bottom=0;right=0;editable=1;overflow=hidden;" vertex="1" parent="67jycsV7ZSqdvSspBb41-121">
          <mxGeometry width="30" height="30" as="geometry" />
        </mxCell>
        <mxCell id="67jycsV7ZSqdvSspBb41-123" value="type BOOLEAN" style="shape=partialRectangle;connectable=0;fillColor=none;top=0;left=0;bottom=0;right=0;align=left;spacingLeft=6;overflow=hidden;" vertex="1" parent="67jycsV7ZSqdvSspBb41-121">
          <mxGeometry x="30" width="160" height="30" as="geometry" />
        </mxCell>
        <mxCell id="67jycsV7ZSqdvSspBb41-124" value="" style="shape=partialRectangle;collapsible=0;dropTarget=0;pointerEvents=0;fillColor=none;top=0;left=0;bottom=0;right=0;points=[[0,0.5],[1,0.5]];portConstraint=eastwest;" vertex="1" parent="67jycsV7ZSqdvSspBb41-117">
          <mxGeometry y="90" width="190" height="30" as="geometry" />
        </mxCell>
        <mxCell id="67jycsV7ZSqdvSspBb41-125" value="" style="shape=partialRectangle;connectable=0;fillColor=none;top=0;left=0;bottom=0;right=0;editable=1;overflow=hidden;" vertex="1" parent="67jycsV7ZSqdvSspBb41-124">
          <mxGeometry width="30" height="30" as="geometry" />
        </mxCell>
        <mxCell id="67jycsV7ZSqdvSspBb41-126" value="amount DOUBLE(7,2)" style="shape=partialRectangle;connectable=0;fillColor=none;top=0;left=0;bottom=0;right=0;align=left;spacingLeft=6;overflow=hidden;" vertex="1" parent="67jycsV7ZSqdvSspBb41-124">
          <mxGeometry x="30" width="160" height="30" as="geometry" />
        </mxCell>
        <mxCell id="67jycsV7ZSqdvSspBb41-127" value="" style="shape=partialRectangle;collapsible=0;dropTarget=0;pointerEvents=0;fillColor=none;top=0;left=0;bottom=0;right=0;points=[[0,0.5],[1,0.5]];portConstraint=eastwest;" vertex="1" parent="67jycsV7ZSqdvSspBb41-117">
          <mxGeometry y="120" width="190" height="30" as="geometry" />
        </mxCell>
        <mxCell id="67jycsV7ZSqdvSspBb41-128" value="FK" style="shape=partialRectangle;connectable=0;fillColor=none;top=0;left=0;bottom=0;right=0;editable=1;overflow=hidden;" vertex="1" parent="67jycsV7ZSqdvSspBb41-127">
          <mxGeometry width="30" height="30" as="geometry" />
        </mxCell>
        <mxCell id="67jycsV7ZSqdvSspBb41-129" value="account_id INT" style="shape=partialRectangle;connectable=0;fillColor=none;top=0;left=0;bottom=0;right=0;align=left;spacingLeft=6;overflow=hidden;" vertex="1" parent="67jycsV7ZSqdvSspBb41-127">
          <mxGeometry x="30" width="160" height="30" as="geometry" />
        </mxCell>
        <mxCell id="67jycsV7ZSqdvSspBb41-72" value="Accounts" style="shape=table;startSize=30;container=1;collapsible=1;childLayout=tableLayout;fixedRows=1;rowLines=0;fontStyle=1;align=center;resizeLast=1;" vertex="1" parent="1">
          <mxGeometry x="320" y="260" width="190" height="230" as="geometry" />
        </mxCell>
        <mxCell id="67jycsV7ZSqdvSspBb41-73" value="" style="shape=partialRectangle;collapsible=0;dropTarget=0;pointerEvents=0;fillColor=none;top=0;left=0;bottom=1;right=0;points=[[0,0.5],[1,0.5]];portConstraint=eastwest;" vertex="1" parent="67jycsV7ZSqdvSspBb41-72">
          <mxGeometry y="30" width="190" height="30" as="geometry" />
        </mxCell>
        <mxCell id="67jycsV7ZSqdvSspBb41-74" value="PK" style="shape=partialRectangle;connectable=0;fillColor=none;top=0;left=0;bottom=0;right=0;fontStyle=1;overflow=hidden;" vertex="1" parent="67jycsV7ZSqdvSspBb41-73">
          <mxGeometry width="30" height="30" as="geometry" />
        </mxCell>
        <mxCell id="67jycsV7ZSqdvSspBb41-75" value="id" style="shape=partialRectangle;connectable=0;fillColor=none;top=0;left=0;bottom=0;right=0;align=left;spacingLeft=6;fontStyle=5;overflow=hidden;" vertex="1" parent="67jycsV7ZSqdvSspBb41-73">
          <mxGeometry x="30" width="160" height="30" as="geometry" />
        </mxCell>
        <mxCell id="67jycsV7ZSqdvSspBb41-76" value="" style="shape=partialRectangle;collapsible=0;dropTarget=0;pointerEvents=0;fillColor=none;top=0;left=0;bottom=0;right=0;points=[[0,0.5],[1,0.5]];portConstraint=eastwest;" vertex="1" parent="67jycsV7ZSqdvSspBb41-72">
          <mxGeometry y="60" width="190" height="30" as="geometry" />
        </mxCell>
        <mxCell id="67jycsV7ZSqdvSspBb41-77" value="" style="shape=partialRectangle;connectable=0;fillColor=none;top=0;left=0;bottom=0;right=0;editable=1;overflow=hidden;" vertex="1" parent="67jycsV7ZSqdvSspBb41-76">
          <mxGeometry width="30" height="30" as="geometry" />
        </mxCell>
        <mxCell id="67jycsV7ZSqdvSspBb41-78" value="number VARCAHR(20)" style="shape=partialRectangle;connectable=0;fillColor=none;top=0;left=0;bottom=0;right=0;align=left;spacingLeft=6;overflow=hidden;" vertex="1" parent="67jycsV7ZSqdvSspBb41-76">
          <mxGeometry x="30" width="160" height="30" as="geometry" />
        </mxCell>
        <mxCell id="67jycsV7ZSqdvSspBb41-79" value="" style="shape=partialRectangle;collapsible=0;dropTarget=0;pointerEvents=0;fillColor=none;top=0;left=0;bottom=0;right=0;points=[[0,0.5],[1,0.5]];portConstraint=eastwest;" vertex="1" parent="67jycsV7ZSqdvSspBb41-72">
          <mxGeometry y="90" width="190" height="30" as="geometry" />
        </mxCell>
        <mxCell id="67jycsV7ZSqdvSspBb41-80" value="FK" style="shape=partialRectangle;connectable=0;fillColor=none;top=0;left=0;bottom=0;right=0;editable=1;overflow=hidden;" vertex="1" parent="67jycsV7ZSqdvSspBb41-79">
          <mxGeometry width="30" height="30" as="geometry" />
        </mxCell>
        <mxCell id="67jycsV7ZSqdvSspBb41-81" value="user_id INT" style="shape=partialRectangle;connectable=0;fillColor=none;top=0;left=0;bottom=0;right=0;align=left;spacingLeft=6;overflow=hidden;" vertex="1" parent="67jycsV7ZSqdvSspBb41-79">
          <mxGeometry x="30" width="160" height="30" as="geometry" />
        </mxCell>
        <mxCell id="67jycsV7ZSqdvSspBb41-82" value="" style="shape=partialRectangle;collapsible=0;dropTarget=0;pointerEvents=0;fillColor=none;top=0;left=0;bottom=0;right=0;points=[[0,0.5],[1,0.5]];portConstraint=eastwest;" vertex="1" parent="67jycsV7ZSqdvSspBb41-72">
          <mxGeometry y="120" width="190" height="30" as="geometry" />
        </mxCell>
        <mxCell id="67jycsV7ZSqdvSspBb41-83" value="FK" style="shape=partialRectangle;connectable=0;fillColor=none;top=0;left=0;bottom=0;right=0;editable=1;overflow=hidden;" vertex="1" parent="67jycsV7ZSqdvSspBb41-82">
          <mxGeometry width="30" height="30" as="geometry" />
        </mxCell>
        <mxCell id="67jycsV7ZSqdvSspBb41-84" value="account_type_id INT" style="shape=partialRectangle;connectable=0;fillColor=none;top=0;left=0;bottom=0;right=0;align=left;spacingLeft=6;overflow=hidden;" vertex="1" parent="67jycsV7ZSqdvSspBb41-82">
          <mxGeometry x="30" width="160" height="30" as="geometry" />
        </mxCell>
        <mxCell id="67jycsV7ZSqdvSspBb41-87" value="Account_Types" style="shape=table;startSize=30;container=1;collapsible=1;childLayout=tableLayout;fixedRows=1;rowLines=0;fontStyle=1;align=center;resizeLast=1;" vertex="1" parent="1">
          <mxGeometry x="640" y="40" width="160" height="150" as="geometry" />
        </mxCell>
        <mxCell id="67jycsV7ZSqdvSspBb41-88" value="" style="shape=partialRectangle;collapsible=0;dropTarget=0;pointerEvents=0;fillColor=none;top=0;left=0;bottom=1;right=0;points=[[0,0.5],[1,0.5]];portConstraint=eastwest;" vertex="1" parent="67jycsV7ZSqdvSspBb41-87">
          <mxGeometry y="30" width="160" height="30" as="geometry" />
        </mxCell>
        <mxCell id="67jycsV7ZSqdvSspBb41-89" value="PK" style="shape=partialRectangle;connectable=0;fillColor=none;top=0;left=0;bottom=0;right=0;fontStyle=1;overflow=hidden;" vertex="1" parent="67jycsV7ZSqdvSspBb41-88">
          <mxGeometry width="30" height="30" as="geometry" />
        </mxCell>
        <mxCell id="67jycsV7ZSqdvSspBb41-90" value="id" style="shape=partialRectangle;connectable=0;fillColor=none;top=0;left=0;bottom=0;right=0;align=left;spacingLeft=6;fontStyle=5;overflow=hidden;" vertex="1" parent="67jycsV7ZSqdvSspBb41-88">
          <mxGeometry x="30" width="130" height="30" as="geometry" />
        </mxCell>
        <mxCell id="67jycsV7ZSqdvSspBb41-91" value="" style="shape=partialRectangle;collapsible=0;dropTarget=0;pointerEvents=0;fillColor=none;top=0;left=0;bottom=0;right=0;points=[[0,0.5],[1,0.5]];portConstraint=eastwest;" vertex="1" parent="67jycsV7ZSqdvSspBb41-87">
          <mxGeometry y="60" width="160" height="30" as="geometry" />
        </mxCell>
        <mxCell id="67jycsV7ZSqdvSspBb41-92" value="" style="shape=partialRectangle;connectable=0;fillColor=none;top=0;left=0;bottom=0;right=0;editable=1;overflow=hidden;" vertex="1" parent="67jycsV7ZSqdvSspBb41-91">
          <mxGeometry width="30" height="30" as="geometry" />
        </mxCell>
        <mxCell id="67jycsV7ZSqdvSspBb41-93" value="name VARCHAR(20)" style="shape=partialRectangle;connectable=0;fillColor=none;top=0;left=0;bottom=0;right=0;align=left;spacingLeft=6;overflow=hidden;" vertex="1" parent="67jycsV7ZSqdvSspBb41-91">
          <mxGeometry x="30" width="130" height="30" as="geometry" />
        </mxCell>
        <mxCell id="67jycsV7ZSqdvSspBb41-94" value="" style="shape=partialRectangle;collapsible=0;dropTarget=0;pointerEvents=0;fillColor=none;top=0;left=0;bottom=0;right=0;points=[[0,0.5],[1,0.5]];portConstraint=eastwest;" vertex="1" parent="67jycsV7ZSqdvSspBb41-87">
          <mxGeometry y="90" width="160" height="30" as="geometry" />
        </mxCell>
        <mxCell id="67jycsV7ZSqdvSspBb41-95" value="" style="shape=partialRectangle;connectable=0;fillColor=none;top=0;left=0;bottom=0;right=0;editable=1;overflow=hidden;" vertex="1" parent="67jycsV7ZSqdvSspBb41-94">
          <mxGeometry width="30" height="30" as="geometry" />
        </mxCell>
        <mxCell id="67jycsV7ZSqdvSspBb41-96" value="" style="shape=partialRectangle;connectable=0;fillColor=none;top=0;left=0;bottom=0;right=0;align=left;spacingLeft=6;overflow=hidden;" vertex="1" parent="67jycsV7ZSqdvSspBb41-94">
          <mxGeometry x="30" width="130" height="30" as="geometry" />
        </mxCell>
        <mxCell id="67jycsV7ZSqdvSspBb41-97" value="" style="shape=partialRectangle;collapsible=0;dropTarget=0;pointerEvents=0;fillColor=none;top=0;left=0;bottom=0;right=0;points=[[0,0.5],[1,0.5]];portConstraint=eastwest;" vertex="1" parent="67jycsV7ZSqdvSspBb41-87">
          <mxGeometry y="120" width="160" height="30" as="geometry" />
        </mxCell>
        <mxCell id="67jycsV7ZSqdvSspBb41-98" value="" style="shape=partialRectangle;connectable=0;fillColor=none;top=0;left=0;bottom=0;right=0;editable=1;overflow=hidden;" vertex="1" parent="67jycsV7ZSqdvSspBb41-97">
          <mxGeometry width="30" height="30" as="geometry" />
        </mxCell>
        <mxCell id="67jycsV7ZSqdvSspBb41-99" value="" style="shape=partialRectangle;connectable=0;fillColor=none;top=0;left=0;bottom=0;right=0;align=left;spacingLeft=6;overflow=hidden;" vertex="1" parent="67jycsV7ZSqdvSspBb41-97">
          <mxGeometry x="30" width="130" height="30" as="geometry" />
        </mxCell>
        <mxCell id="67jycsV7ZSqdvSspBb41-134" value="" style="endArrow=none;html=1;entryX=0;entryY=0;entryDx=0;entryDy=0;exitX=0.5;exitY=1;exitDx=0;exitDy=0;" edge="1" parent="1" source="67jycsV7ZSqdvSspBb41-51" target="67jycsV7ZSqdvSspBb41-72">
          <mxGeometry width="50" height="50" relative="1" as="geometry">
            <mxPoint x="120" y="250" as="sourcePoint" />
            <mxPoint x="200" y="310" as="targetPoint" />
            <Array as="points" />
          </mxGeometry>
        </mxCell>
        <mxCell id="67jycsV7ZSqdvSspBb41-135" value="" style="endArrow=none;html=1;exitX=1;exitY=0;exitDx=0;exitDy=0;entryX=0;entryY=0.5;entryDx=0;entryDy=0;" edge="1" parent="1" source="67jycsV7ZSqdvSspBb41-72" target="67jycsV7ZSqdvSspBb41-91">
          <mxGeometry width="50" height="50" relative="1" as="geometry">
            <mxPoint x="440" y="180" as="sourcePoint" />
            <mxPoint x="490" y="130" as="targetPoint" />
            <Array as="points" />
          </mxGeometry>
        </mxCell>
        <mxCell id="67jycsV7ZSqdvSspBb41-136" value="" style="endArrow=none;html=1;exitX=1;exitY=0.5;exitDx=0;exitDy=0;entryX=0;entryY=1;entryDx=0;entryDy=0;" edge="1" parent="1" source="67jycsV7ZSqdvSspBb41-109" target="67jycsV7ZSqdvSspBb41-72">
          <mxGeometry width="50" height="50" relative="1" as="geometry">
            <mxPoint x="290" y="670" as="sourcePoint" />
            <mxPoint x="340" y="620" as="targetPoint" />
            <Array as="points" />
          </mxGeometry>
        </mxCell>
        <mxCell id="67jycsV7ZSqdvSspBb41-137" value="" style="endArrow=none;html=1;exitX=1;exitY=1;exitDx=0;exitDy=0;entryX=0.5;entryY=0;entryDx=0;entryDy=0;" edge="1" parent="1" source="67jycsV7ZSqdvSspBb41-72" target="67jycsV7ZSqdvSspBb41-117">
          <mxGeometry width="50" height="50" relative="1" as="geometry">
            <mxPoint x="610" y="400" as="sourcePoint" />
            <mxPoint x="660" y="350" as="targetPoint" />
          </mxGeometry>
        </mxCell>
        <mxCell id="67jycsV7ZSqdvSspBb41-138" value="1:N" style="text;html=1;align=center;verticalAlign=middle;resizable=0;points=[];autosize=1;" vertex="1" parent="1">
          <mxGeometry x="115" y="250" width="30" height="20" as="geometry" />
        </mxCell>
        <mxCell id="67jycsV7ZSqdvSspBb41-139" value="1:1" style="text;html=1;align=center;verticalAlign=middle;resizable=0;points=[];autosize=1;" vertex="1" parent="1">
          <mxGeometry x="310" y="230" width="30" height="20" as="geometry" />
        </mxCell>
        <mxCell id="67jycsV7ZSqdvSspBb41-140" value="1:N" style="text;html=1;align=center;verticalAlign=middle;resizable=0;points=[];autosize=1;" vertex="1" parent="1">
          <mxGeometry x="245" y="660" width="30" height="20" as="geometry" />
        </mxCell>
        <mxCell id="67jycsV7ZSqdvSspBb41-141" value="1:1" style="text;html=1;align=center;verticalAlign=middle;resizable=0;points=[];autosize=1;" vertex="1" parent="1">
          <mxGeometry x="285" y="490" width="30" height="20" as="geometry" />
        </mxCell>
        <mxCell id="67jycsV7ZSqdvSspBb41-142" value="1:1" style="text;html=1;align=center;verticalAlign=middle;resizable=0;points=[];autosize=1;" vertex="1" parent="1">
          <mxGeometry x="515" y="260" width="30" height="20" as="geometry" />
        </mxCell>
        <mxCell id="67jycsV7ZSqdvSspBb41-143" value="1:1" style="text;html=1;align=center;verticalAlign=middle;resizable=0;points=[];autosize=1;" vertex="1" parent="1">
          <mxGeometry x="605" y="80" width="30" height="20" as="geometry" />
        </mxCell>
        <mxCell id="67jycsV7ZSqdvSspBb41-144" value="1:N" style="text;html=1;align=center;verticalAlign=middle;resizable=0;points=[];autosize=1;" vertex="1" parent="1">
          <mxGeometry x="525" y="480" width="30" height="20" as="geometry" />
        </mxCell>
        <mxCell id="67jycsV7ZSqdvSspBb41-145" value="1:1" style="text;html=1;align=center;verticalAlign=middle;resizable=0;points=[];autosize=1;" vertex="1" parent="1">
          <mxGeometry x="645" y="520" width="30" height="20" as="geometry" />
        </mxCell>
      </root>
    </mxGraphModel>
  </diagram>
</mxfile>
